HIERARCHY
ROOT SpineBase
{
  OFFSET 0.000000 0.000000 0.000000
  CHANNELS 6 Xposition Yposition Zposition Zrotation Xrotation Yrotation
  JOINT SpineMid
  {
    OFFSET 0.000000 30.990566 0.000000
    CHANNELS 3 Zrotation Xrotation Yrotation
    JOINT SpineShoulder
    {
      OFFSET -0.052882 22.963313 -0.721020
      CHANNELS 3 Zrotation Xrotation Yrotation
      JOINT Neck
      {
        OFFSET -0.062239 7.573937 -0.552561
        CHANNELS 3 Zrotation Xrotation Yrotation
        JOINT Head
        {
          OFFSET 0.774086 14.883852 -2.087559
          CHANNELS 3 Zrotation Xrotation Yrotation
          End Site
          {
            OFFSET 0 0 0
          }
        }
      }
      JOINT ShoulderLeft
      {
        OFFSET -17.339481 -2.684011 0.360660
        CHANNELS 3 Zrotation Xrotation Yrotation
        JOINT ElbowLeft
        {
          OFFSET -8.311982 -31.267135 -1.725120
          CHANNELS 3 Zrotation Xrotation Yrotation
          JOINT WristLeft
          {
            OFFSET -2.178718 -23.549078 -6.700760
            CHANNELS 3 Zrotation Xrotation Yrotation
            JOINT HandLeft
            {
              OFFSET -0.052125 -2.006909 1.919481
              CHANNELS 3 Zrotation Xrotation Yrotation
              JOINT HandTipLeft
              {
                OFFSET -0.648206 -7.499970 -0.642565
                CHANNELS 3 Zrotation Xrotation Yrotation
                End Site
                {
                  OFFSET 0 0 0
                }
              }
              JOINT ThumbLeft
              {
                OFFSET 2.811101 -1.603977 -2.546902
                CHANNELS 3 Zrotation Xrotation Yrotation
                End Site
                {
                  OFFSET 0 0 0
                }
              }
            }
          }
        }
      }
      JOINT ShoulderRight
      {
        OFFSET 16.632007 -3.653822 -1.183146
        CHANNELS 3 Zrotation Xrotation Yrotation
        JOINT ElbowRight
        {
          OFFSET 7.371215 -30.555670 2.307451
          CHANNELS 3 Zrotation Xrotation Yrotation
          JOINT WristRight
          {
            OFFSET 4.430401 -23.813523 -3.091825
            CHANNELS 3 Zrotation Xrotation Yrotation
            JOINT HandRight
            {
              OFFSET 1.676349 -5.204852 -0.564517
              CHANNELS 3 Zrotation Xrotation Yrotation
              JOINT HandTipRight
              {
                OFFSET -0.771564 -4.873397 0.127872
                CHANNELS 3 Zrotation Xrotation Yrotation
                End Site
                {
                  OFFSET 0 0 0
                }
              }
              JOINT ThumbRight
              {
                OFFSET 1.627811 1.265577 -2.274532
                CHANNELS 3 Zrotation Xrotation Yrotation
                End Site
                {
                  OFFSET 0 0 0
                }
              }
            }
          }
        }
      }
    }
  }
  JOINT HipLeft
  {
    OFFSET -8.162190 0.375613 -3.160645
    CHANNELS 3 Zrotation Xrotation Yrotation
    JOINT KneeLeft
    {
      OFFSET -3.232641 -31.865986 4.230417
      CHANNELS 3 Zrotation Xrotation Yrotation
      JOINT AnkleLeft
      {
        OFFSET 0.094027 -38.193717 9.916898
        CHANNELS 3 Zrotation Xrotation Yrotation
        JOINT FootLeft
        {
          OFFSET -0.889136 -3.601530 -12.965199
          CHANNELS 3 Zrotation Xrotation Yrotation
          End Site
          {
            OFFSET 0 0 0
          }
        }
      }
    }
  }
  JOINT HipRight
  {
    OFFSET 6.804971 0.472530 -3.920566
    CHANNELS 3 Zrotation Xrotation Yrotation
    JOINT KneeRight
    {
      OFFSET 8.671582 -33.864357 -1.188989
      CHANNELS 3 Zrotation Xrotation Yrotation
      JOINT AnkleRight
      {
        OFFSET 10.887851 -37.728382 12.744544
        CHANNELS 3 Zrotation Xrotation Yrotation
        JOINT FootRight
        {
          OFFSET -1.198352 -3.600150 -12.900860
          CHANNELS 3 Zrotation Xrotation Yrotation
          End Site
          {
            OFFSET 0 0 0
          }
        }
      }
    }
  }
}
MOTION
Frames: 6
Frame Time: 0.033333
74.345559 82.379825 386.092140 -0.000000 0.000000 2.906555 -0.000000 0.000000 -2.906555 -0.000000 0.000000 0.000000 -0.000000 0.000000 0.000000 0.000000 0.000000 0.000000 -0.000000 0.000000 0.000000 -0.000000 0.000000 0.000000 -0.000000 0.000000 0.000000 -0.000000 0.000000 0.000000 0.000000 0.000000 0.000000 0.000000 0.000000 0.000000 -0.000000 0.000000 0.000000 -0.000000 0.000000 0.000000 -0.000000 0.000000 0.000000 -0.000000 0.000000 0.000000 0.000000 0.000000 0.000000 0.000000 0.000000 0.000000 -0.000000 0.000000 -2.906555 -0.000000 0.000000 0.000000 -0.000000 0.000000 0.000000 0.000000 0.000000 0.000000 -0.000000 0.000000 -2.906555 -0.000000 0.000000 0.000000 -0.000000 0.000000 0.000000 0.000000 0.000000 0.000000
76.615664 82.347429 385.783706 -0.046916 0.062089 3.208753 0.043367 -0.064617 -3.208703 -0.000000 0.000000 0.000000 -0.000000 0.000000 0.000000 0.000000 0.000000 0.000000 0.352817 -1.672278 0.430967 -0.005116 -0.590301 -0.314167 -0.631956 6.286956 -0.476964 -2.201936 -4.905140 0.500783 0.000000 0.000000 0.000000 0.000000 0.000000 0.000000 -0.000000 0.000000 0.000000 2.785273 2.684425 0.072003 -0.146447 -1.424399 0.010714 3.860534 0.000009 -0.106347 0.000000 0.000000 0.000000 0.000000 0.000000 0.000000 -0.367198 -0.808207 -3.183108 -2.559626 0.943027 -0.747844 2.930107 -0.138360 0.763860 0.000000 0.000000 0.000000 -0.984365 -2.281848 -3.781302 -0.630670 3.015378 0.311347 1.505594 -0.742662 0.302240 0.000000 0.000000 0.000000
78.751529 82.311349 385.544416 -0.131169 0.098407 3.536567 0.124849 -0.106311 -3.536338 -0.000000 0.000000 0.000000 -0.000000 0.000000 0.000000 0.000000 0.000000 0.000000 0.668729 -3.042924 0.792357 0.028764 -1.064638 -0.589604 -0.057830 14.241422 0.080772 -5.099962 -11.624163 -0.729492 0.000000 0.000000 0.000000 0.000000 0.000000 0.000000 1.031666 0.815902 0.266958 4.070064 4.112367 -0.169813 0.645439 -2.761898 -0.011524 5.603994 -0.216854 0.033083 0.000000 0.000000 0.000000 0.000000 0.000000 0.000000 -0.708514 -1.110735 -3.540464 -4.673876 1.375831 -1.310780 5.448689 -0.191363 1.423583 0.000000 0.000000 0.000000 -1.878146 -4.267065 -4.652932 -1.332699 5.686323 0.646776 2.973339 -1.404911 0.628304 0.000000 0.000000 0.000000
80.753154 82.271584 385.374269 -0.252768 0.108938 3.889573 0.244796 -0.125832 -3.889063 -0.000000 0.000000 0.000000 -0.158042 -0.888176 0.022776 0.000000 0.000000 0.000000 0.948537 -4.141035 1.087811 0.101193 -1.383044 -0.836709 1.789329 23.598345 1.520300 -8.957917 -19.533648 -4.115870 0.000000 0.000000 0.000000 0.000000 0.000000 0.000000 1.423766 1.097837 0.357916 5.488417 5.633556 -0.295707 2.296865 -4.350747 -0.092023 5.637170 -0.169820 0.395853 0.000000 0.000000 0.000000 0.000000 0.000000 0.000000 -1.018896 -0.926235 -3.970962 -6.321431 1.299197 -1.752815 7.534804 -0.172504 1.968868 0.000000 0.000000 0.000000 -2.668926 -5.948701 -5.506948 -2.092208 7.996761 0.986730 4.392102 -1.979506 0.972509 0.000000 0.000000 0.000000
82.620539 82.228135 385.273265 -0.411708 0.093670 4.267430 0.403597 -0.124044 -4.266656 -0.000000 0.000000 0.000000 -0.202383 -1.251176 0.034423 0.000000 0.000000 0.000000 1.193119 -4.987407 1.319576 0.212013 -1.519618 -1.062971 4.667078 33.355845 3.430369 -13.798504 -27.352900 -9.510189 0.000000 0.000000 0.000000 0.000000 0.000000 0.000000 1.731335 1.292818 0.421930 6.480984 6.794577 -0.404794 4.521531 -6.662728 -0.272396 4.519950 0.693003 0.968172 0.000000 0.000000 0.000000 0.000000 0.000000 0.000000 -1.291115 -0.265607 -4.467922 -7.489478 0.713547 -2.115925 9.177767 -0.094064 2.394078 0.000000 0.000000 0.000000 -3.344127 -7.323861 -6.329854 -2.892508 9.936125 1.309304 5.751079 -2.460470 1.328813 0.000000 0.000000 0.000000
84.353684 82.181002 385.241404 -0.607975 0.052601 4.669868 0.601675 -0.101921 -4.669054 -0.000000 0.000000 0.000000 -0.242393 -1.647182 0.048089 0.000000 0.000000 0.000000 1.403237 -5.594959 1.488455 0.361266 -1.459837 -1.273255 8.051713 42.073499 5.333441 -18.931274 -33.745638 -15.872715 0.000000 0.000000 0.000000 0.000000 0.000000 0.000000 1.953256 1.399367 0.459790 7.046849 7.603165 -0.473547 6.767414 -10.175038 -0.602206 2.989319 2.881188 1.766351 0.000000 0.000000 0.000000 0.000000 0.000000 0.000000 -1.515782 0.866924 -5.025703 -8.172137 -0.383625 -2.419773 10.373455 0.033924 2.696933 0.000000 0.000000 0.000000 -3.891191 -8.392246 -7.109348 -3.715329 11.498049 1.590937 7.040036 -2.843168 1.691044 0.000000 0.000000 0.000000
